{
  "accessors": [
    {
      "bufferView": 2,
      "componentType": 5126,
      "count": 65532,
      "max": [
        14.046053886413574,
        0.47477149963378906,
        11.826024055480957
      ],
      "min": [
        -19.31597900390625,
        -11.995476722717285,
        -8.077716827392578
      ],
      "type": "VEC3"
    },
    {
      "bufferView": 2,
      "byteOffset": 786384,
      "componentType": 5126,
      "count": 65532,
      "max": [
        0.9998998641967773,
        0.999993622303009,
        0.999994695186615
      ],
      "min": [
        -0.9999974966049194,
        -0.9999305009841919,
        -0.9999828934669495
      ],
      "type": "VEC3"
    },
    {
      "bufferView": 3,
      "componentType": 5126,
      "count": 65532,
      "max": [
        0.9098039269447327,
        0.929411768913269,
        0.8901960849761963,
        1.0
      ],
      "min": [
        0.027450980618596077,
        0.007843137718737125,
        0.0,
        1.0
      ],
      "type": "VEC4"
    },
    {
      "bufferView": 1,
      "componentType": 5126,
      "count": 65532,
      "max": [
        0.9997559785842896,
        0.3767090141773224
      ],
      "min": [
        0.00024399999529123306,
        0.00024399999529123306
      ],
      "type": "VEC2"
    },
    {
      "bufferView": 0,
      "componentType": 5125,
      "count": 291573,
      "type": "SCALAR"
    },
    {
      "bufferView": 2,
      "byteOffset": 1572768,
      "componentType": 5126,
      "count": 65532,
      "max": [
        12.89717960357666,
        0.4656076431274414,
        12.331062316894531
      ],
      "min": [
        -12.056156158447266,
        -13.542798042297363,
        -7.835973262786865
      ],
      "type": "VEC3"
    },
    {
      "bufferView": 2,
      "byteOffset": 2359152,
      "componentType": 5126,
      "count": 65532,
      "max": [
        0.999931275844574,
        0.9999426007270813,
        0.9999980330467224
      ],
      "min": [
        -0.999908983707428,
        -0.9999956488609314,
        -0.9999367594718933
      ],
      "type": "VEC3"
    },
    {
      "bufferView": 3,
      "byteOffset": 1048512,
      "componentType": 5126,
      "count": 65532,
      "max": [
        0.9098039269447327,
        0.929411768913269,
        0.8901960849761963,
        1.0
      ],
      "min": [
        0.003921568859368563,
        0.0,
        0.0,
        1.0
      ],
      "type": "VEC4"
    },
    {
      "bufferView": 1,
      "byteOffset": 524256,
      "componentType": 5126,
      "count": 65532,
      "max": [
        0.9997559785842896,
        0.36303699016571045
      ],
      "min": [
        0.00024399999529123306,
        0.00024399999529123306
      ],
      "type": "VEC2"
    },
    {
      "bufferView": 0,
      "byteOffset": 1166292,
      "componentType": 5125,
      "count": 258180,
      "type": "SCALAR"
    },
    {
      "bufferView": 2,
      "byteOffset": 3145536,
      "componentType": 5126,
      "count": 65532,
      "max": [
        11.451395988464355,
        0.1627044677734375,
        8.68796443939209
      ],
      "min": [
        -18.6026668548584,
        -13.314926147460938,
        -6.746426105499268
      ],
      "type": "VEC3"
    },
    {
      "bufferView": 2,
      "byteOffset": 3931920,
      "componentType": 5126,
      "count": 65532,
      "max": [
        0.9999794960021973,
        0.9999614953994751,
        0.9999743103981018
      ],
      "min": [
        -0.9999886155128479,
        -0.9999929070472717,
        -0.9999552965164185
      ],
      "type": "VEC3"
    },
    {
      "bufferView": 3,
      "byteOffset": 2097024,
      "componentType": 5126,
      "count": 65532,
      "max": [
        0.8941176533699036,
        0.8745098114013672,
        0.8666666746139526,
        1.0
      ],
      "min": [
        0.0,
        0.0,
        0.0,
        1.0
      ],
      "type": "VEC4"
    },
    {
      "bufferView": 1,
      "byteOffset": 1048512,
      "componentType": 5126,
      "count": 65532,
      "max": [
        0.9997559785842896,
        0.3569999933242798
      ],
      "min": [
        0.00024399999529123306,
        0.00024399999529123306
      ],
      "type": "VEC2"
    },
    {
      "bufferView": 0,
      "byteOffset": 2199012,
      "componentType": 5125,
      "count": 263466,
      "type": "SCALAR"
    },
    {
      "bufferView": 2,
      "byteOffset": 4718304,
      "componentType": 5126,
      "count": 65532,
      "max": [
        15.094626426696777,
        -0.016249656677246094,
        8.75295352935791
      ],
      "min": [
        -18.735008239746094,
        -13.540970802307129,
        -10.244641304016113
      ],
      "type": "VEC3"
    },
    {
      "bufferView": 2,
      "byteOffset": 5504688,
      "componentType": 5126,
      "count": 65532,
      "max": [
        0.9999906420707703,
        0.9994913935661316,
        0.9999738931655884
      ],
      "min": [
        -0.9999852776527405,
        -0.9999961256980896,
        -0.9999467134475708
      ],
      "type": "VEC3"
    },
    {
      "bufferView": 3,
      "byteOffset": 3145536,
      "componentType": 5126,
      "count": 65532,
      "max": [
        0.8784313797950745,
        0.8235294222831726,
        0.7568627595901489,
        1.0
      ],
      "min": [
        0.0235294122248888,
        0.019607843831181526,
        0.003921568859368563,
        1.0
      ],
      "type": "VEC4"
    },
    {
      "bufferView": 1,
      "byteOffset": 1572768,
      "componentType": 5126,
      "count": 65532,
      "max": [
        0.9997559785842896,
        0.35831600427627563
      ],
      "min": [
        0.00024399999529123306,
        0.00024399999529123306
      ],
      "type": "VEC2"
    },
    {
      "bufferView": 0,
      "byteOffset": 3252876,
      "componentType": 5125,
      "count": 272925,
      "type": "SCALAR"
    },
    {
      "bufferView": 2,
      "byteOffset": 6291072,
      "componentType": 5126,
      "count": 65534,
      "max": [
        15.068985939025879,
        0.14194488525390625,
        8.691370010375977
      ],
      "min": [
        -21.889188766479492,
        -12.2459135055542,
        -10.244905471801758
      ],
      "type": "VEC3"
    },
    {
      "bufferView": 2,
      "byteOffset": 7077480,
      "componentType": 5126,
      "count": 65534,
      "max": [
        0.9999906420707703,
        0.9999849200248718,
        0.9999986886978149
      ],
      "min": [
        -0.9999886751174927,
        -0.9999982118606567,
        -0.9999839663505554
      ],
      "type": "VEC3"
    },
    {
      "bufferView": 3,
      "byteOffset": 4194048,
      "componentType": 5126,
      "count": 65534,
      "max": [
        0.8666666746139526,
        0.8274509906768799,
        0.7960784435272217,
        1.0
      ],
      "min": [
        0.0313725508749485,
        0.027450980618596077,
        0.019607843831181526,
        1.0
      ],
      "type": "VEC4"
    },
    {
      "bufferView": 1,
      "byteOffset": 2097024,
      "componentType": 5126,
      "count": 65534,
      "max": [
        0.9997559785842896,
        0.40600600838661194
      ],
      "min": [
        0.00024399999529123306,
        0.00024399999529123306
      ],
      "type": "VEC2"
    },
    {
      "bufferView": 0,
      "byteOffset": 4344576,
      "componentType": 5125,
      "count": 240210,
      "type": "SCALAR"
    },
    {
      "bufferView": 2,
      "byteOffset": 7863888,
      "componentType": 5126,
      "count": 51140,
      "max": [
        14.892840385437012,
        -0.5980186462402344,
        8.736001014709473
      ],
      "min": [
        -13.1257905960083,
        -12.62403392791748,
        -10.17202377319336
      ],
      "type": "VEC3"
    },
    {
      "bufferView": 2,
      "byteOffset": 8477568,
      "componentType": 5126,
      "count": 51140,
      "max": [
        0.9999929070472717,
        0.9999937415122986,
        0.9999781847000122
      ],
      "min": [
        -0.9997209906578064,
        -0.9999668598175049,
        -0.9999136328697205
      ],
      "type": "VEC3"
    },
    {
      "bufferView": 3,
      "byteOffset": 5242592,
      "componentType": 5126,
      "count": 51140,
      "max": [
        0.8666666746139526,
        0.8666666746139526,
        0.8352941274642944,
        1.0
      ],
      "min": [
        0.0,
        0.0,
        0.0,
        1.0
      ],
      "type": "VEC4"
    },
    {
      "bufferView": 1,
      "byteOffset": 2621296,
      "componentType": 5126,
      "count": 51140,
      "max": [
        0.9997559785842896,
        0.36084699630737305
      ],
      "min": [
        0.00024399999529123306,
        0.00024399999529123306
      ],
      "type": "VEC2"
    },
    {
      "bufferView": 0,
      "byteOffset": 5305416,
      "componentType": 5125,
      "count": 173646,
      "type": "SCALAR"
    }
  ],
  "asset": {
    "extras": {
      "author": "Geoffrey Marchal (https://sketchfab.com/geoffreymarchal)",
      "license": "CC-BY-NC-SA-4.0 (http://creativecommons.org/licenses/by-nc-sa/4.0/)",
      "source": "https://sketchfab.com/3d-models/bust-of-angelique-dhannetaire-26c23265310a4e45aaa296d02db83cb2",
      "title": "Bust of Angélique d'Hannetaire"
    },
    "generator": "Sketchfab-15.12.0",
    "version": "2.0"
  },
  "bufferViews": [
    {
      "buffer": 0,
      "byteLength": 6000000,
      "name": "floatBufferViews",
      "target": 34963
    },
    {
      "buffer": 0,
      "byteLength": 3030416,
      "byteOffset": 6000000,
      "byteStride": 8,
      "name": "floatBufferViews",
      "target": 34962
    },
    {
      "buffer": 0,
      "byteLength": 9091248,
      "byteOffset": 9030416,
      "byteStride": 12,
      "name": "floatBufferViews",
      "target": 34962
    },
    {
      "buffer": 0,
      "byteLength": 6060832,
      "byteOffset": 18121664,
      "byteStride": 16,
      "name": "floatBufferViews",
      "target": 34962
    }
  ],
  "buffers": [
    {
      "byteLength": 24182496,
      "uri": "scene.bin"
    }
  ],
  "extensionsUsed": [
    "KHR_materials_specular"
  ],
  "images": [
    {
      "uri": "textures/angelique_-_LowPoly_Material_u1_v1_baseColor.jpeg"
    },
    {
      "uri": "textures/angelique_-_LowPoly_Material_u1_v1_specularf0.png"
    }
  ],
  "materials": [
    {
      "doubleSided": true,
      "extensions": {
        "KHR_materials_specular": {
          "specularColorFactor": [
            1.0,
            1.0,
            1.0
          ],
          "specularFactor": 1.0,
          "specularTexture": {
            "index": 1
          }
        }
      },
      "name": "angelique_-_LowPoly_Material_u1_v1",
      "pbrMetallicRoughness": {
        "baseColorTexture": {
          "index": 0
        },
        "metallicFactor": 0.0
      }
    }
  ],
  "meshes": [
    {
      "name": "Object_0",
      "primitives": [
        {
          "attributes": {
            "COLOR_0": 2,
            "NORMAL": 1,
            "POSITION": 0,
            "TEXCOORD_0": 3
          },
          "indices": 4,
          "material": 0,
          "mode": 4
        }
      ]
    },
    {
      "name": "Object_1",
      "primitives": [
        {
          "attributes": {
            "COLOR_0": 7,
            "NORMAL": 6,
            "POSITION": 5,
            "TEXCOORD_0": 8
          },
          "indices": 9,
          "material": 0,
          "mode": 4
        }
      ]
    },
    {
      "name": "Object_2",
      "primitives": [
        {
          "attributes": {
            "COLOR_0": 12,
            "NORMAL": 11,
            "POSITION": 10,
            "TEXCOORD_0": 13
          },
          "indices": 14,
          "material": 0,
          "mode": 4
        }
      ]
    },
    {
      "name": "Object_3",
      "primitives": [
        {
          "attributes": {
            "COLOR_0": 17,
            "NORMAL": 16,
            "POSITION": 15,
            "TEXCOORD_0": 18
          },
          "indices": 19,
          "material": 0,
          "mode": 4
        }
      ]
    },
    {
      "name": "Object_4",
      "primitives": [
        {
          "attributes": {
            "COLOR_0": 22,
            "NORMAL": 21,
            "POSITION": 20,
            "TEXCOORD_0": 23
          },
          "indices": 24,
          "material": 0,
          "mode": 4
        }
      ]
    },
    {
      "name": "Object_5",
      "primitives": [
        {
          "attributes": {
            "COLOR_0": 27,
            "NORMAL": 26,
            "POSITION": 25,
            "TEXCOORD_0": 28
          },
          "indices": 29,
          "material": 0,
          "mode": 4
        }
      ]
    }
  ],
  "nodes": [
    {
      "children": [
        1
      ],
      "matrix": [
        -0.02023058757185936,
        0.9997953176498413,
        2.219991563134552e-16,
        0.0,
        0.0,
        2.220446049250313e-16,
        -1.0,
        0.0,
        -0.9997953176498413,
        -0.02023058757185936,
        -4.49209282479476e-18,
        0.0,
        0.0,
        0.0,
        0.0,
        1.0
      ],
      "name": "Sketchfab_model"
    },
    {
      "children": [
        2,
        3,
        4,
        5,
        6,
        7
      ],
      "name": "angelique_-_LowPoly.obj.cleaner.materialmerger.gles"
    },
    {
      "mesh": 0,
      "name": "Object_2"
    },
    {
      "mesh": 1,
      "name": "Object_3"
    },
    {
      "mesh": 2,
      "name": "Object_4"
    },
    {
      "mesh": 3,
      "name": "Object_5"
    },
    {
      "mesh": 4,
      "name": "Object_6"
    },
    {
      "mesh": 5,
      "name": "Object_7"
    }
  ],
  "samplers": [
    {
      "magFilter": 9729,
      "minFilter": 9987,
      "wrapS": 10497,
      "wrapT": 10497
    },
    {
      "magFilter": 9728,
      "minFilter": 9728,
      "wrapS": 10497,
      "wrapT": 10497
    }
  ],
  "scene": 0,
  "scenes": [
    {
      "name": "Sketchfab_Scene",
      "nodes": [
        0
      ]
    }
  ],
  "textures": [
    {
      "sampler": 0,
      "source": 0
    },
    {
      "sampler": 1,
      "source": 1
    }
  ]
}
